<svg xmlns="http://www.w3.org/2000/svg" width="58" height="58" viewBox="0 0 58 58"><g><g><path fill="#2c3740" d="M53.078 37.13l3.889 6.718-6.262 6.263-15.203-18.03-7.974 7.973 3.124 8.678-4.98 8.603-7.79-13.242-.625-.313c-.346.17-.737.263-1.138.263-.672 0-1.318-.26-1.77-.714a2.502 2.502 0 0 1-.71-1.765c0-.381.083-.753.238-1.087l-.603-1.005L.33 32.02l8.619-4.99 8.68 3.124 7.973-7.973L7.57 6.978 13.834.715l6.717 3.889 3.346-3.346a3.984 3.984 0 0 1 2.83-1.184c1.06 0 2.063.42 2.827 1.184 1.586 1.586 1.586 4.071 0 5.657l-1.57 1.57 7.072 4.242 9.7-9.701C46.099 1.687 47.857.95 49.709.95c1.853 0 3.61.737 4.948 2.076 2.774 2.778 2.774 7.126 0 9.899l-9.7 9.7 4.242 7.072 1.57-1.569a3.98 3.98 0 0 1 2.827-1.184c1.06 0 2.065.42 2.829 1.184a3.978 3.978 0 0 1 1.187 2.833c0 1.06-.423 2.064-1.189 2.826zm-2.862-5.623l1.886 3.771 2.908-2.907c.388-.387.6-.887.601-1.411a2.016 2.016 0 0 0-3.43-1.417zM22.404 5.58l3.77 1.886L28.14 5.5a1.979 1.979 0 0 0 0-2.829 2.017 2.017 0 0 0-2.83.001zm4.617 15.181l6.577-6.576-7.706-4.624-4.98-2.49-.033.033-6.718-3.889-3.636 3.637zm-12.3 17.236l.041.068 1.888-6.138-7.504-2.7-4.816 2.788zm3.165 1.798c.155.155.553.156.706.002l5.659-5.659c.167-.167.165-.54-.004-.71a.522.522 0 0 0-.353-.12.502.502 0 0 0-.35.123l-5.658 5.657c-.168.169-.168.54 0 .707zM16.47 41.92l.395-.398a2.322 2.322 0 0 1-.393-.311 2.347 2.347 0 0 1-.313-.393l-.395.394a.504.504 0 0 0-.126.353.5.5 0 0 0 .126.35c.161.163.55.161.706.005zm9.284-.888l-6.226 1.916 6.13 10.42 2.798-4.832zm9.873-11.905l6.81-6.81 10.805-10.805c1.98-1.98 1.98-5.087 0-7.071-.96-.96-2.215-1.49-3.534-1.49s-2.575.53-3.538 1.49L35.365 15.245l-6.81 6.81-9.786 9.787-1.571 5.107 4.932-4.932c.45-.45 1.094-.71 1.764-.71.67 0 1.314.257 1.767.706.942.952.94 2.603.004 3.54l-4.932 4.931 5.107-1.572zm14.95 7.677l.034-.033-2.489-4.978-4.625-7.708-6.576 6.576L50.83 47.157l3.636-3.637z"/></g></g></svg>