<svg xmlns="http://www.w3.org/2000/svg" width="20" height="32" viewBox="0 0 20 32"><g><g><path fill="#fff" d="M2 0h16a2 2 0 0 1 2 2v27.999a2 2 0 0 1-2 2H2a2 2 0 0 1-2-2v-28a2 2 0 0 1 2-2zm3 2.5a.5.5 0 0 0 .5.5h9a.5.5 0 1 0 0-1h-9a.5.5 0 0 0-.5.5zM2 28h16V5H2zm7 1.999a1 1 0 1 0 2 0 1 1 0 0 0-2 0z"/><path fill="#54667a" d="M2 0h16a2 2 0 0 1 2 2v27.999a2 2 0 0 1-2 2H2a2 2 0 0 1-2-2v-28a2 2 0 0 1 2-2zm3 2.5a.5.5 0 0 0 .5.5h9a.5.5 0 1 0 0-1h-9a.5.5 0 0 0-.5.5zM2 28h16V5H2zm7 1.999a1 1 0 1 0 2 0 1 1 0 0 0-2 0z"/></g></g></svg>