<svg xmlns="http://www.w3.org/2000/svg" width="52" height="62" viewBox="0 0 52 62"><g><g><path fill="#2c3740" d="M50.745 50.215c-.19.114-3.267 1.929-7.035 1.929-1.906 0-3.987-.464-5.963-1.845-4.711-3.296-11.254-.145-11.664.06-.547.316-6.134 3.376-12.58.007-5.706-2.975-11.75-.022-11.81.008a.999.999 0 1 1-.893-1.79c.251-.125 5.594-2.73 11.412-.904L10.87 34.273C6.075 27.74 5.846 21.684 5.839 21.427l-.018-.602.524-.296 1.994-1.131v-13.5h9.5v-5.5h15v5.5h9.5v13.019l3.517 1.894-.018.616c-.007.257-.236 6.313-5.032 12.846L39.34 48.95c4.724 2.861 10.319-.415 10.376-.45a1 1 0 0 1 1.03 1.715zM19.84 5.899h11v-3.5h-11zm4.5 6.717l-14 7.945v.006l-2.45 1.386c.187 1.62 1.035 6.387 4.75 11.346l.167.222 1.501 15.013.121.059c4.4 2.298 8.315 1.093 9.91.4zm16 5.224V7.899h-30v10.363l14.987-8.506zm-1.3 15.459c3.703-4.944 4.556-9.695 4.747-11.331l-3.447-1.857-14-7.538v35.489c2.164-.857 6.879-2.243 11.102-.24l1.43-14.3zm8.245 21.962a1 1 0 0 1-.763 1.191c-.958.21-1.894.314-2.801.314-2.206 0-4.236-.616-5.973-1.832-4.73-3.307-11.253-.146-11.663.06-.54.312-6.13 3.378-12.58.008-3.157-1.645-6.417-1.462-8.595-1.019a1 1 0 1 1-.399-1.96c2.494-.507 6.24-.711 9.918 1.205 5.663 2.959 10.612.06 10.662.03l.054-.03c.32-.167 7.91-4.019 13.749.068 2.01 1.404 4.432 1.808 7.2 1.202a1.002 1.002 0 0 1 1.191.763zm-3.45 5.02a1 1 0 0 1-1.079.914 10.099 10.099 0 0 1-5.008-1.794c-4.71-3.297-11.253-.145-11.664.059-.547.317-6.134 3.375-12.58.007-1.52-.792-3.204-1.235-5.002-1.314a1 1 0 0 1 .089-1.999c2.091.093 4.056.611 5.838 1.54 5.626 2.939 10.46.148 10.664.028l.052-.029c.32-.166 7.91-4.017 13.749.068a8.116 8.116 0 0 0 4.028 1.44 1 1 0 0 1 .914 1.08zM15.34 34.898a1 1 0 0 1 2 0c0 .798.434 1.395 1 1.721V33.62c-.595-.346-1-.985-1-1.722 0-.736.405-1.374 1-1.721V26.25a3.505 3.505 0 0 1-2.5-3.353c0-1.93 1.57-3.5 3.5-3.5s3.5 1.57 3.5 3.5a3.505 3.505 0 0 1-2.5 3.353v3.926c.594.347 1 .985 1 1.721 0 .737-.406 1.376-1 1.722v3c.565-.327 1-.924 1-1.722a1 1 0 0 1 2 0c0 2.206-1.795 4-4 4-2.206 0-4-1.794-4-4zm3-10.89v-.11a1 1 0 1 1 2 0v.11c.304-.275.5-.668.5-1.11 0-.827-.673-1.5-1.5-1.5-.828 0-1.5.673-1.5 1.5 0 .442.195.835.5 1.11zm16.5-1.11c0 1.93-1.57 3.5-3.5 3.5s-3.5-1.57-3.5-3.5 1.57-3.5 3.5-3.5 3.5 1.57 3.5 3.5zm-2 0c0-.827-.673-1.5-1.5-1.5-.828 0-1.5.673-1.5 1.5s.672 1.5 1.5 1.5c.827 0 1.5-.673 1.5-1.5z"/></g></g></svg>