<svg xmlns="http://www.w3.org/2000/svg" width="42" height="60" viewBox="0 0 42 60"><g><g><path fill="#2c3740" d="M36.94 15.5V39h-32V15.5c0-3.309 2.692-6 6-6h20c3.309 0 6 2.691 6 6zm-2 0c0-2.206-1.794-4-4-4h-20c-2.205 0-4 1.794-4 4V37h28zm.903 36.256l5.373 6.613a1 1 0 0 1-1.552 1.261L38.339 58H3.644l-1.451 1.658A.996.996 0 0 1 1.44 60a1 1 0 0 1-.752-1.658l5.687-6.5C2.945 51.14.44 48.166.44 44.5v-34C.44 6.294 3.735 3 7.94 3h5.5V0h15v3h5.5c4.206 0 7.5 3.294 7.5 7.5v34c0 3.544-2.344 6.433-5.597 7.256zM15.44 5.5h11V2h-11zM6.27 55l-.875 1h31.32l-.812-1zm28.008-2l-.813-1H8.894l-.875 1zm5.163-42.5c0-3.084-2.416-5.5-5.5-5.5h-5.5v2.5h-15V5h-5.5c-3.084 0-5.5 2.416-5.5 5.5v34c0 3.084 2.416 5.5 5.5 5.5h26c3.084 0 5.5-2.416 5.5-5.5zM4.94 41h6.5v6.5h-1c-2.878 0-5.5-2.622-5.5-5.5zm2.172 2a3.86 3.86 0 0 0 2.328 2.328V43zm23.328-2h6.5v1c0 2.878-2.621 5.5-5.5 5.5h-1zm2 4.328A3.86 3.86 0 0 0 34.768 43H32.44z"/></g></g></svg>