<svg xmlns="http://www.w3.org/2000/svg" width="52" height="61" viewBox="0 0 52 61"><g><g><path fill="#2c3740" d="M47.878 21.43a25.345 25.345 0 0 1 3.765 13.32c0 14.061-11.44 25.5-25.5 25.5S.643 48.811.643 34.75c0-12.7 9.333-23.258 21.5-25.184V9.25h-1.1c-2.508 0-4.4-1.763-4.4-4.1 0-2.426 1.974-4.4 4.4-4.4h10.2c2.427 0 4.4 1.974 4.4 4.4 0 2.337-1.934 4.1-4.5 4.1h-1v.316a25.36 25.36 0 0 1 10.698 4.365l3.918-4.084 7.293 7.408zm-5.439-6.276a25.72 25.72 0 0 1 4.3 4.586l2.496-2.496-4.457-4.528zM24.143 7.25v2.086a25.34 25.34 0 0 1 2-.086c.674 0 1.34.034 2 .086V7.25h3c1.243 0 2.5-.72 2.5-2.1 0-1.323-1.076-2.4-2.4-2.4h-10.2a2.403 2.403 0 0 0-2.4 2.4c0 1.443 1.244 2.1 2.4 2.1zm2 4c-12.958 0-23.5 10.542-23.5 23.5s10.542 23.5 23.5 23.5 23.5-10.542 23.5-23.5-10.542-23.5-23.5-23.5zm21 23.5c0 11.58-9.42 21-21 21s-21-9.42-21-21 9.42-21 21-21 21 9.42 21 21zm-21.897-1.69c-.383.289-.603.723-.603 1.19a1.501 1.501 0 0 0 3 0c0-.467-.22-.901-.603-1.19l-.397-.301V23.43l-.5-1.333-.5 1.333v9.328zm14.383-7.667l2.215-1.33a19.15 19.15 0 0 0-5.627-5.412l-1.274 1.699a.999.999 0 0 1-1.4.2 1 1 0 0 1-.2-1.4l1.112-1.482a18.857 18.857 0 0 0-7.312-1.892v3.292l1.5 4.001v8.742c.641.651 1 1.515 1 2.439 0 1.93-1.57 3.5-3.5 3.5s-3.5-1.57-3.5-3.5c0-.924.36-1.788 1-2.439V23.07l1.5-4v-3.293c-2.61.136-5.082.803-7.311 1.892l1.111 1.482a1 1 0 0 1-1.6 1.2l-1.273-1.699a19.146 19.146 0 0 0-5.627 5.413l2.215 1.329a1 1 0 1 1-1.03 1.715l-2.225-1.335A18.862 18.862 0 0 0 7.17 33.75h4.973a1 1 0 0 1 0 2H7.17c.134 2.576.784 5.019 1.847 7.225.036-.028.071-.058.112-.082l2.5-1.5a1 1 0 1 1 1.029 1.715l-2.5 1.5a.973.973 0 0 1-.198.084 19.156 19.156 0 0 0 5.7 5.895 1 1 0 0 1 .183-.437l1.5-2a1 1 0 1 1 1.6 1.2l-1.5 2a.996.996 0 0 1-.186.187 18.861 18.861 0 0 0 7.886 2.186V49.25a1 1 0 0 1 2 0v4.473a18.862 18.862 0 0 0 7.887-2.186.997.997 0 0 1-.186-.187l-1.5-2a1 1 0 1 1 1.6-1.2l1.5 2c.099.133.156.283.182.437a19.151 19.151 0 0 0 5.7-5.895.97.97 0 0 1-.197-.085l-2.5-1.499a1 1 0 0 1 1.029-1.715l2.5 1.5c.04.024.075.054.111.082a18.884 18.884 0 0 0 1.848-7.225h-4.974a1 1 0 1 1 0-2h4.974a18.859 18.859 0 0 0-2.233-7.977l-2.226 1.335a.999.999 0 0 1-1.372-.343 1 1 0 0 1 .343-1.372z"/></g></g></svg>